<?xml version="1.0" encoding="UTF-8"?>
<svg width="22px" height="21px" viewBox="0 0 22 21" version="1.1" xmlns="http://www.w3.org/2000/svg" xmlns:xlink="http://www.w3.org/1999/xlink">
    <!-- Generator: Sketch 49.3 (51167) - http://www.bohemiancoding.com/sketch -->
    <title>basket</title>
    <desc>Created with Sketch.</desc>
    <defs/>
    <g id="Symbols" stroke="none" stroke-width="1" fill="none" fill-rule="evenodd">
        <g id="Icons/Basket">
            <g id="basket">
                <g id="Group-4" transform="translate(4.400000, 0.000000)"/>
                <path d="M20.5817543,7.04 L1.4136163,7.04 C0.632257237,7.04 0,7.6651665 0,8.43769368 L0,9.98726934 C0,10.7597965 0.632257237,11.3849072 1.4136163,11.3849072 L1.85623589,11.3849072 L3.22022685,18.6949456 C3.3917984,19.5566707 4.18681995,20.24 5.01340074,20.24 L16.7021146,20.24 C17.5286389,20.24 18.3234911,19.5566707 18.4952884,18.6949456 L19.8683125,11.3803301 L20.5863837,11.3803301 C21.3676863,11.3803301 22,10.7552194 22,9.98269222 L22,8.43306075 C21.9955964,7.6651665 21.3630569,7.04 20.5817543,7.04 Z M7.80444467,14.3454613 L7.80444467,17.4981425 C7.80444467,17.9490439 7.43420242,18.2885316 7.0050195,18.2885316 C6.54896325,18.2885316 6.20582016,17.9221952 6.20582016,17.4981425 L6.20582016,13.0773781 C6.20582016,12.6262534 6.57606241,12.2869332 7.0050195,12.2869332 C7.46130158,12.2869332 7.80444467,12.6530463 7.80444467,13.0773781 L7.80444467,14.3454613 Z M10.3699446,14.3454613 L10.3699446,17.4981425 C10.3699446,17.9490439 9.99964586,18.2885316 9.5705194,18.2885316 C9.11440669,18.2885316 8.77103777,17.9221952 8.77103777,17.4981425 L8.77103777,13.0773781 C8.77103777,12.6262534 9.14156231,12.2869332 9.5705194,12.2869332 C9.99964586,12.2869332 10.3699446,12.6530463 10.3699446,13.0773781 L10.3699446,14.3454613 Z M12.9488247,16.1763619 L12.9488247,17.4981425 C12.9488247,17.9221952 12.6056816,18.2885316 12.1493995,18.2885316 C11.7204989,18.2885316 11.3499743,17.9490439 11.3499743,17.4981425 L11.3499743,13.0773781 C11.3499743,12.6530463 11.7204989,12.2869332 12.1493995,12.2869332 C12.5785824,12.2869332 12.9488247,12.6262534 12.9488247,13.0773781 L12.9488247,16.1763619 Z M15.5143246,16.1763619 L15.5143246,17.4981425 C15.5143246,17.9221952 15.1709557,18.2885316 14.7148994,18.2885316 C14.2857165,18.2885316 13.9154178,17.9490439 13.9154178,17.4981425 L13.9154178,13.0773781 C13.9154178,12.6530463 14.2586173,12.2869332 14.7148994,12.2869332 C15.1438,12.2869332 15.5143246,12.6262534 15.5143246,13.0773781 L15.5143246,16.1763619 Z" id="Fill-5" fill="#FFFFFF"/>
                <path d="M14.86603,5.26349305 L16.72,5.26349305 L13.9715545,0.434849684 C13.7502287,0.0434071579 13.2594368,-0.0898711579 12.8774083,0.141337263 C12.4953797,0.367988211 12.3652328,0.870588632 12.591009,1.26180884 L14.86603,5.26349305 Z" id="Fill-1" fill="#FFFFFF"/>
                <path d="M8.57479753,1.26180884 C8.79612335,0.870588632 8.67020969,0.367988211 8.28818115,0.141337263 C7.9061526,-0.085536 7.4153607,0.0434071579 7.19398062,0.434849684 L4.44558943,5.26782821 L6.29955947,5.26782821 L8.57479753,1.26180884 Z" id="Fill-3" fill="#FFFFFF"/>
            </g>
        </g>
    </g>
</svg>